<svg id="visual" viewBox="0 0 900 600" xmlns="http://www.w3.org/2000/svg" xmlns:xlink="http://www.w3.org/1999/xlink" version="1.1"><rect x="0" y="0" width="900" height="600" fill="#009473"></rect><defs><linearGradient id="grad1_0" x1="33.3%" y1="0%" x2="100%" y2="100%"><stop offset="20%" stop-color="#009473" stop-opacity="1"></stop><stop offset="80%" stop-color="#009473" stop-opacity="1"></stop></linearGradient></defs><defs><linearGradient id="grad2_0" x1="0%" y1="0%" x2="66.7%" y2="100%"><stop offset="20%" stop-color="#009473" stop-opacity="1"></stop><stop offset="80%" stop-color="#009473" stop-opacity="1"></stop></linearGradient></defs><g transform="translate(900, 0)"><path d="M0 486.7C-63.3 480.8 -126.6 474.9 -186.3 449.7C-245.9 424.5 -301.8 380 -325.3 325.3C-348.7 270.5 -339.7 205.5 -361.2 149.6C-382.7 93.7 -434.7 46.9 -486.7 0L0 0Z" fill="#F6F6F9"></path></g><g transform="translate(0, 600)"><path d="M0 -486.7C49 -448.4 98.1 -410.1 163 -393.6C228 -377.1 308.9 -382.4 344.2 -344.2C379.5 -306 369.1 -224.2 385.3 -159.6C401.4 -95 444.1 -47.5 486.7 0L0 0Z" fill="#F6F6F9"></path></g></svg>
